<svg xmlns="http://www.w3.org/2000/svg" width="200" height="60" viewBox="0 0 1090 265" version="1.1">
  <path d="M 97.500 0.717 C 78.935 3.300, 55.105 14.520, 40.198 27.697 L 35.896 31.500 48.208 43.746 L 60.521 55.992 88.504 27.996 L 116.487 0 108.493 0.150 C 104.097 0.232, 99.150 0.487, 97.500 0.717 M 97.491 31.009 L 66.510 62.002 81.755 77.246 L 96.999 92.491 135 54.500 C 155.900 33.606, 173 16.248, 173 15.928 C 173 15.607, 168.613 13.270, 163.250 10.733 C 153.039 5.903, 143.585 2.716, 136 1.547 C 133.525 1.166, 130.819 0.665, 129.986 0.435 C 129.031 0.170, 117.055 11.438, 97.491 31.009 M 163.495 38.005 L 146.513 55.009 186.715 95.212 C 208.827 117.324, 227.218 135.115, 227.584 134.749 C 227.950 134.383, 228.464 128.102, 228.725 120.792 C 229.712 93.168, 221.726 66.888, 205.937 45.805 C 201.307 39.622, 182.736 21, 181.201 21 C 180.803 21, 172.836 28.652, 163.495 38.005 M 334.500 43.349 C 326.736 45.914, 321.427 49.350, 314.750 56.131 L 308 62.987 308 53.493 L 308 44 302.500 44 L 297 44 297 108.500 L 297 173 302.500 173 L 308 173 308 148.534 L 308 124.069 314.750 130.784 C 322.015 138.012, 329.137 142.060, 337.799 143.884 C 361.599 148.896, 385.434 134.325, 393.109 110.072 C 396.022 100.868, 396.011 85.098, 393.085 75.850 C 390.591 67.967, 384.489 58.455, 378.678 53.393 C 376.380 51.391, 371.125 48.127, 367 46.140 C 360.030 42.782, 358.757 42.509, 349 42.277 C 342.329 42.119, 337.041 42.510, 334.500 43.349 M 451.500 42.669 C 441.880 43.854, 425 49.658, 425 51.781 C 425 52.833, 427.515 58.612, 428.473 59.763 C 428.594 59.908, 431.203 58.916, 434.272 57.558 C 442.777 53.797, 455.048 51.624, 463.399 52.401 C 480.074 53.950, 489.510 63.031, 490.772 78.743 C 491.277 85.044, 491.258 85.103, 488.891 84.563 C 487.576 84.262, 484.475 83.554, 482 82.990 C 473.289 81.002, 453.121 80.661, 445.144 82.365 C 430.764 85.437, 419.940 94, 416.954 104.664 C 415.286 110.623, 416.191 121.503, 418.778 126.568 C 425.940 140.594, 446.567 148.020, 465.781 143.489 C 474.243 141.494, 479.329 138.748, 485.677 132.745 L 491 127.710 491 135.355 L 491 143 496 143 L 501 143 501 108.105 C 501 75.903, 500.844 72.705, 498.977 66.661 C 493.664 49.460, 474.597 39.825, 451.500 42.669 M 520.040 44.750 C 520.062 45.163, 530.565 67.100, 543.379 93.500 L 566.679 141.500 563.810 147.280 C 560.296 154.360, 554.583 160.852, 550.282 162.653 C 545.837 164.514, 537.511 164.284, 531.271 162.128 L 526.043 160.322 524.352 164.747 C 522.907 168.532, 522.868 169.305, 524.081 170.083 C 526.574 171.681, 532.311 173.053, 539.052 173.664 C 553.023 174.929, 563.906 168.319, 571.431 154 C 574.052 149.012, 606.060 73.788, 617.704 45.250 C 618.078 44.333, 616.653 44.005, 612.357 44.017 L 606.500 44.035 589.586 86.267 C 580.284 109.495, 572.409 128.811, 572.086 129.191 C 571.764 129.572, 562.535 110.559, 551.578 86.941 L 531.655 44 525.828 44 C 522.622 44, 520.018 44.337, 520.040 44.750 M 334.300 53.862 C 311.046 61.897, 300.400 90.021, 311.951 112.903 C 319.626 128.107, 336.532 137.028, 352.490 134.295 C 365.526 132.062, 374.711 125.115, 380.234 113.313 C 384.287 104.654, 385.257 90.547, 382.501 80.366 C 379.141 67.953, 369.713 57.573, 358.124 53.527 C 352.222 51.467, 340.765 51.628, 334.300 53.862 M 121.743 79.757 L 103.006 98.514 150.966 146.466 L 198.926 194.418 201.419 192.076 C 204.827 188.875, 212.198 177.737, 216.453 169.362 C 220.098 162.188, 225 148.829, 225 146.070 C 225 144.702, 142.337 61, 140.986 61 C 140.708 61, 132.048 69.441, 121.743 79.757 M 451.291 91.102 C 436.147 92.975, 426.969 101.147, 427.022 112.710 C 427.087 126.887, 439.957 135.974, 458.199 134.724 C 471.014 133.845, 482.238 127.568, 487.720 118.214 C 489.942 114.423, 490.474 112.117, 490.827 104.746 C 491.060 99.854, 490.854 95.454, 490.367 94.967 C 489.234 93.834, 473.588 91.281, 464.500 90.746 C 460.650 90.519, 454.706 90.679, 451.291 91.102 M 406 203.035 C 406 208.692, 405.879 209.005, 404.066 208.035 C 398.557 205.087, 390.806 208.579, 388.925 214.856 C 386.338 223.492, 391.200 232, 398.723 232 C 400.855 232, 403.140 231.460, 403.800 230.800 C 404.733 229.867, 405.267 229.867, 406.200 230.800 C 406.860 231.460, 408.210 232, 409.200 232 C 410.865 232, 411 230.685, 411 214.500 L 411 197 408.500 197 C 406.109 197, 406 197.264, 406 203.035 M 626.226 214.250 L 626.500 231.500 629 231.500 L 631.500 231.500 631.774 214.250 L 632.047 197 629 197 L 625.953 197 626.226 214.250 M 784.226 214.250 L 784.500 231.500 787 231.500 L 789.500 231.500 789.774 214.250 L 790.047 197 787 197 L 783.953 197 784.226 214.250 M 300.250 198.662 C 299.321 199.037, 299 203.386, 299 215.583 L 299 232 301.500 232 C 303.929 232, 304 231.800, 304 225 L 304 218 307.378 218 C 311.558 218, 312.479 219.077, 314.227 226.007 C 315.459 230.890, 315.927 231.537, 318.435 231.829 C 321.072 232.136, 321.212 231.973, 320.573 229.329 C 318.728 221.696, 317.933 219.290, 316.692 217.593 C 315.516 215.985, 315.642 215.449, 317.671 213.420 C 322.012 209.079, 320.358 201.883, 314.452 199.415 C 311.197 198.055, 302.851 197.613, 300.250 198.662 M 376.037 199.931 C 374.568 202.675, 377.325 205.432, 380.069 203.963 C 382.270 202.785, 382.551 200.951, 380.800 199.200 C 379.049 197.449, 377.215 197.730, 376.037 199.931 M 508.250 198.610 C 507.323 199.023, 507 203.414, 507 215.583 L 507 232 509.500 232 C 511.910 232, 512 231.767, 512 225.500 L 512 219 515.750 218.996 C 526.250 218.986, 531.674 207.740, 524.452 200.955 C 522.457 199.080, 520.648 198.535, 515.718 198.322 C 512.298 198.174, 508.938 198.303, 508.250 198.610 M 679.174 200.314 C 676.847 202.792, 676.081 210.314, 678.034 211.521 C 678.649 211.901, 677.841 213.556, 676.034 215.615 C 671.934 220.283, 671.895 225.049, 675.923 229.077 C 679.289 232.443, 685.084 233.042, 689.949 230.526 C 692.460 229.228, 692.944 229.228, 694.022 230.526 C 695.304 232.071, 701 232.600, 701 231.174 C 701 230.720, 699.895 229.310, 698.543 228.041 C 696.169 225.810, 696.141 225.628, 697.702 222.616 C 698.590 220.902, 699.649 218.037, 700.053 216.250 C 700.723 213.295, 700.576 213, 698.433 213 C 696.531 213, 695.870 213.770, 695 217 C 694.408 219.200, 693.624 221, 693.259 221 C 692.894 221, 691.142 219.591, 689.365 217.869 L 686.135 214.738 689.567 211.501 C 693.557 207.738, 693.963 204.494, 690.927 200.635 C 688.159 197.115, 682.329 196.956, 679.174 200.314 M 724.999 200.250 C 720.268 203.480, 718 208.351, 718 215.284 C 718 221.637, 719.411 225.193, 723.419 228.937 C 727.083 232.360, 736.137 232.966, 740.710 230.094 C 747.391 225.898, 750.169 213.823, 746.248 206.020 C 742.382 198.324, 731.965 195.496, 724.999 200.250 M 799.250 198.667 C 797.411 199.402, 797.728 203.682, 799.678 204.430 C 802.127 205.370, 804.769 202.442, 803.412 200.291 C 802.215 198.394, 801.059 197.943, 799.250 198.667 M 882.250 198.662 C 881.321 199.037, 881 203.386, 881 215.583 L 881 232 883.500 232 C 885.905 232, 886 231.758, 886 225.627 L 886 219.254 891.191 218.756 C 895.411 218.350, 896.906 217.669, 899.191 215.113 C 904.113 209.604, 902.364 201.368, 895.785 199.075 C 892.661 197.986, 884.540 197.738, 882.250 198.662 M 477.250 201.662 C 476.563 201.940, 476 203.254, 476 204.583 C 476 206.065, 475.420 207, 474.500 207 C 473.567 207, 473 207.944, 473 209.500 C 473 210.974, 473.574 212, 474.397 212 C 475.458 212, 475.880 214.068, 476.147 220.581 C 476.544 230.233, 477.712 232, 483.691 232 C 486.543 232, 487 231.659, 487 229.531 C 487 227.651, 486.608 227.213, 485.355 227.694 C 482.638 228.737, 481 225.207, 481 218.309 L 481 212 484 212 C 486.533 212, 487 211.611, 487 209.500 C 487 207.389, 486.533 207, 484 207 C 481.333 207, 481 206.667, 481 204 C 481 201.096, 480.078 200.521, 477.250 201.662 M 584.250 201.662 C 583.563 201.940, 583 203.254, 583 204.583 C 583 206.065, 582.420 207, 581.500 207 C 580.567 207, 580 207.944, 580 209.500 C 580 211.056, 580.567 212, 581.500 212 C 582.705 212, 583 213.531, 583 219.777 C 583 229.564, 584.406 232, 590.057 232 C 593.583 232, 594 231.739, 594 229.531 C 594 227.739, 593.586 227.222, 592.487 227.643 C 589.413 228.823, 588 226.064, 588 218.878 L 588 212 591 212 C 593.533 212, 594 211.611, 594 209.500 C 594 207.389, 593.533 207, 591 207 C 588.333 207, 588 206.667, 588 204 C 588 201.096, 587.078 200.521, 584.250 201.662 M 1059.250 201.662 C 1058.563 201.940, 1058 203.202, 1058 204.467 C 1058 205.926, 1057.269 206.958, 1056 207.290 C 1054.900 207.577, 1054 208.572, 1054 209.500 C 1054 210.428, 1054.900 211.423, 1056 211.710 C 1057.780 212.176, 1058 213.074, 1058 219.894 C 1058 229.555, 1059.425 232, 1065.057 232 C 1068.333 232, 1069 231.662, 1069 230 C 1069 228.741, 1068.333 228, 1067.200 228 C 1063.991 228, 1063 225.828, 1063 218.800 L 1063 212 1066 212 C 1068.533 212, 1069 211.611, 1069 209.500 C 1069 207.389, 1068.533 207, 1066 207 C 1063.333 207, 1063 206.667, 1063 204 C 1063 201.096, 1062.078 200.521, 1059.250 201.662 M 304.667 202.667 C 304.300 203.033, 304 205.733, 304 208.667 C 304 214.574, 304.736 215.034, 310.810 212.916 C 314.175 211.743, 315.515 209.199, 314.482 205.943 C 313.555 203.023, 306.624 200.710, 304.667 202.667 M 513.250 202.687 C 512.441 202.998, 512 205.299, 512 209.214 L 512 215.262 515.681 214.664 C 519.694 214.013, 521.444 212.643, 522.416 209.389 C 523.541 205.621, 517.368 201.107, 513.250 202.687 M 682.068 203.874 C 681.332 205.249, 681.316 206.701, 682.017 208.545 C 682.971 211.054, 683.174 211.128, 685.267 209.739 C 688.346 207.694, 688.380 202.625, 685.318 202.189 C 683.940 201.993, 682.742 202.614, 682.068 203.874 M 729 203.279 C 720.666 207.443, 721.626 224.375, 730.362 227.287 C 734.620 228.707, 738.900 226.431, 741.105 221.576 C 742.123 219.334, 742.966 216.497, 742.978 215.270 C 743.019 211.153, 739.852 204.975, 736.926 203.462 C 733.497 201.689, 732.240 201.660, 729 203.279 M 887.250 202.662 C 885.723 203.279, 885.526 213.589, 887.024 214.515 C 888.922 215.688, 894.055 213.845, 895.644 211.420 C 897.901 207.976, 896.718 204.446, 892.857 203.100 C 889.466 201.918, 889.155 201.894, 887.250 202.662 M 331.353 208.926 C 325.025 212.785, 324.243 224.147, 329.954 229.250 C 332.424 231.458, 333.999 232, 337.934 232 C 344.144 232, 346 231.277, 346 228.859 C 346 227.128, 345.498 226.998, 341.074 227.585 C 336.659 228.170, 335.880 227.971, 333.574 225.665 C 332.158 224.249, 331 222.620, 331 222.045 C 331 221.405, 334.101 221, 339 221 L 347 221 347 216.923 C 347 208.690, 338.699 204.447, 331.353 208.926 M 356.337 208.477 C 353.721 210.309, 352.607 214.396, 354.009 217.017 C 354.591 218.104, 356.821 219.889, 358.966 220.982 C 363.716 223.406, 364.560 224.620, 362.893 226.629 C 361.721 228.042, 359.462 228.119, 355.059 226.899 C 353.175 226.377, 352.394 230.001, 354.152 231.115 C 354.893 231.585, 357.433 231.976, 359.795 231.985 C 363.036 231.996, 364.694 231.397, 366.545 229.545 C 370.788 225.303, 369.691 220.897, 363.627 217.823 C 358.733 215.342, 357.719 214.044, 359.243 212.207 C 360.001 211.294, 361.465 211.052, 363.699 211.471 C 366.255 211.951, 367.173 211.713, 367.659 210.447 C 368.016 209.515, 367.685 208.414, 366.896 207.914 C 364.706 206.528, 358.659 206.850, 356.337 208.477 M 376 219.500 L 376 232 378.500 232 L 381 232 381 219.500 L 381 207 378.500 207 L 376 207 376 219.500 M 424.256 208.029 C 420.742 209.442, 418.008 214.830, 418.004 220.350 C 418.001 224.535, 418.466 225.666, 421.400 228.600 C 424.426 231.626, 425.389 231.998, 430.150 231.985 C 436.226 231.967, 438.567 230.920, 437.683 228.615 C 437.200 227.358, 436.148 227.155, 432.616 227.639 C 428.720 228.173, 427.834 227.925, 425.580 225.670 C 424.161 224.252, 423 222.620, 423 222.045 C 423 221.405, 426.101 221, 431 221 L 439 221 439 216.923 C 439 209.356, 431.783 205.003, 424.256 208.029 M 446.219 219.250 C 446.491 231.095, 446.574 231.511, 448.750 231.820 C 450.906 232.126, 451.001 231.835, 451.015 224.820 C 451.033 215.933, 452.460 212.625, 456.474 212.164 C 460.868 211.660, 462 214.021, 462 223.691 C 462 231.887, 462.034 232, 464.500 232 C 466.990 232, 467 231.962, 467 222.577 C 467 213.898, 466.795 212.910, 464.411 210.077 C 461.459 206.568, 456.938 205.954, 453.223 208.557 C 451.211 209.966, 451 209.966, 451 208.557 C 451 207.558, 450.093 207, 448.469 207 L 445.938 207 446.219 219.250 M 537.763 208.565 C 530.430 212.544, 530.108 225.460, 537.217 230.439 C 538.442 231.298, 541.167 232, 543.272 232 C 550.985 232, 555.500 227.384, 555.500 219.500 C 555.500 217.192, 554.841 214.071, 554.035 212.566 C 551.247 207.355, 543.502 205.451, 537.763 208.565 M 562.917 207.413 C 562.688 207.640, 562.639 213.265, 562.809 219.913 C 563.117 231.977, 563.122 232, 565.559 232 C 567.952 232, 568 231.836, 568 223.655 C 568 216.840, 568.335 215.006, 569.829 213.655 C 570.835 212.745, 572.410 212, 573.329 212 C 574.445 212, 575 211.169, 575 209.500 C 575 206.558, 572.629 206.171, 569.223 208.557 C 567.211 209.966, 567 209.966, 567 208.557 C 567 207.176, 564.003 206.337, 562.917 207.413 M 602.750 208.080 C 601.788 208.641, 601 210.025, 601 211.157 C 601 212.734, 601.408 213.040, 602.750 212.466 C 606.544 210.843, 609.706 210.849, 611.339 212.482 C 613.690 214.833, 613.402 216, 610.468 216 C 606.747 216, 601.320 218.534, 600.080 220.850 C 596.242 228.022, 603.670 234.923, 611.005 230.997 C 612.257 230.327, 613.084 230.327, 613.498 230.997 C 613.839 231.549, 614.991 232, 616.059 232 C 617.837 232, 618 231.242, 618 222.950 C 618 213.543, 616.602 208.829, 613.455 207.621 C 610.977 206.670, 604.709 206.939, 602.750 208.080 M 642.695 208.111 C 640.154 209.589, 638.860 213.502, 639.957 216.388 C 640.457 217.701, 642.808 219.848, 645.183 221.157 C 649.778 223.693, 650.576 225.603, 647.775 227.370 C 646.528 228.157, 645.224 228.146, 643.061 227.329 C 640.406 226.327, 639.999 226.427, 639.429 228.225 C 638.593 230.857, 640.417 231.965, 645.615 231.985 C 652.826 232.012, 657.010 226.625, 654.061 221.114 C 653.544 220.148, 651.273 218.525, 649.014 217.506 C 645.871 216.089, 644.976 215.166, 645.203 213.577 C 645.446 211.879, 646.214 211.500, 649.409 211.500 C 653.485 211.500, 655.405 209.504, 652.872 207.900 C 650.988 206.706, 644.891 206.833, 642.695 208.111 M 755 219.500 L 755 232 757.500 232 C 759.960 232, 760 231.870, 760 223.955 C 760 216.805, 760.266 215.643, 762.390 213.519 C 765.291 210.618, 768.725 211.146, 770.077 214.702 C 770.585 216.037, 771 220.476, 771 224.565 C 771 231.901, 771.035 232, 773.594 232 L 776.187 232 775.844 221.912 C 775.516 212.292, 775.370 211.712, 772.694 209.412 C 769.505 206.670, 765.435 206.307, 762.324 208.486 C 760.448 209.800, 760.137 209.800, 759.633 208.486 C 759.319 207.669, 758.149 207, 757.031 207 C 755.098 207, 755 207.602, 755 219.500 M 798.460 208.244 C 798.168 209.006, 798.057 214.550, 798.214 220.564 C 798.500 231.486, 798.503 231.500, 801 231.500 L 803.500 231.500 803.500 219.500 C 803.500 207.810, 803.442 207.492, 801.246 207.180 C 799.998 207.003, 798.754 207.478, 798.460 208.244 M 812 219.500 L 812 232 814.397 232 C 816.714 232, 816.807 231.710, 817.147 223.412 C 817.454 215.953, 817.796 214.584, 819.746 213.004 C 822.570 210.718, 825.851 211.478, 827.077 214.702 C 827.585 216.037, 828 220.476, 828 224.565 C 828 231.829, 828.058 232, 830.500 232 C 832.993 232, 833 231.972, 833 222.423 C 833 213.171, 832.901 212.747, 830.077 209.923 C 826.772 206.618, 822.719 206.108, 819.223 208.557 C 817.211 209.966, 817 209.966, 817 208.557 C 817 207.563, 816.096 207, 814.500 207 L 812 207 812 219.500 M 845.217 208.561 C 841.929 210.864, 840 215.296, 840 220.550 C 840 224.505, 840.508 225.708, 843.400 228.600 C 846.426 231.626, 847.389 231.998, 852.150 231.985 C 858.226 231.967, 860.567 230.920, 859.683 228.615 C 859.205 227.371, 858.147 227.154, 854.787 227.611 C 851.331 228.082, 849.967 227.774, 847.750 226.025 C 842.845 222.154, 844.051 221, 853 221 L 861 221 861 216.923 C 861 208.977, 851.676 204.037, 845.217 208.561 M 910.176 208.059 C 907.642 209.075, 907.534 212.801, 910.059 212.101 C 914.271 210.934, 917.176 210.901, 918.509 212.008 C 920.840 213.942, 920.303 216, 917.468 216 C 913.747 216, 908.320 218.534, 907.080 220.850 C 904.170 226.289, 907.566 232, 913.710 232 C 915.708 232, 918.165 231.255, 919.171 230.345 C 920.876 228.802, 921 228.807, 921 230.415 C 921 231.588, 921.652 232.037, 923.040 231.820 C 924.161 231.644, 925.061 231.162, 925.040 230.750 C 925.018 230.338, 925 225.930, 925 220.955 C 925 212.684, 924.790 211.699, 922.545 209.455 C 919.924 206.833, 914.702 206.244, 910.176 208.059 M 930.283 208.250 C 930.557 208.938, 932.661 214.198, 934.958 219.940 C 938.687 229.259, 938.995 230.641, 937.829 232.820 C 937.110 234.162, 935.505 235.724, 934.261 236.291 C 932.851 236.933, 932 238.201, 932 239.661 C 932 244.759, 939.239 240.827, 942.715 233.840 C 945.193 228.861, 953 209.048, 953 207.740 C 953 207.260, 951.787 207.010, 950.305 207.184 C 947.899 207.466, 947.342 208.329, 945.102 215.250 C 943.722 219.512, 942.327 223, 942.001 223 C 941.675 223, 940.100 219.400, 938.500 215 C 935.775 207.506, 935.408 207, 932.689 207 C 930.768 207, 929.954 207.423, 930.283 208.250 M 958.771 207.750 C 958.581 208.162, 958.594 213.814, 958.800 220.308 C 959.163 231.744, 959.243 232.106, 961.337 231.808 C 963.324 231.525, 963.541 230.777, 964 222.617 C 964.423 215.098, 964.814 213.526, 966.546 212.380 C 968.289 211.228, 968.920 211.256, 970.796 212.570 C 972.789 213.965, 973 214.972, 973 223.057 C 973 231.930, 973.020 232, 975.500 232 C 977.971 232, 978 231.900, 978 223.500 C 978 216.333, 978.314 214.686, 980 213 C 982.368 210.632, 983.013 210.558, 985.495 212.373 C 987.029 213.495, 987.452 215.421, 987.811 222.926 C 988.226 231.602, 988.367 232.090, 990.375 231.803 C 992.374 231.518, 992.500 230.929, 992.498 221.828 C 992.496 212.973, 992.292 211.939, 990.074 209.578 C 987.268 206.591, 982.649 206.157, 979.223 208.557 C 977.211 209.966, 976.789 209.966, 974.777 208.557 C 973.555 207.701, 971.405 207, 970 207 C 968.595 207, 966.445 207.701, 965.223 208.557 C 963.211 209.966, 963 209.966, 963 208.557 C 963 206.999, 959.433 206.318, 958.771 207.750 M 1003.400 210.400 C 1000.414 213.386, 1000 214.427, 1000 218.950 C 1000 228.629, 1004.447 232.692, 1014.034 231.771 C 1019.732 231.223, 1020.286 230.909, 1019.438 228.700 C 1018.955 227.440, 1017.846 227.231, 1014.039 227.682 C 1010.029 228.157, 1008.903 227.903, 1007.125 226.125 C 1003.029 222.029, 1004.208 221, 1013 221 L 1021 221 1021 217.950 C 1021 207.696, 1010.576 203.224, 1003.400 210.400 M 1028 219.500 L 1028 232 1030.500 232 C 1032.969 232, 1033 231.895, 1033 223.571 C 1033 213.545, 1034.426 211.183, 1040 211.977 C 1042.374 212.315, 1042.473 212.655, 1043 222.329 C 1043.490 231.311, 1043.551 231.500, 1046 231.500 C 1048.498 231.500, 1048.500 231.491, 1048.493 221.657 C 1048.486 212.122, 1048.398 211.739, 1045.687 209.407 C 1042.678 206.819, 1039.099 206.342, 1035.827 208.093 C 1034.350 208.883, 1033.483 208.883, 1032.693 208.093 C 1032.092 207.492, 1030.790 207, 1029.800 207 C 1028.163 207, 1028 208.130, 1028 219.500 M 1077.134 209.090 C 1075.442 210.666, 1074.965 212.080, 1075.195 214.840 C 1075.465 218.080, 1076.049 218.787, 1080.277 221 C 1083.850 222.870, 1084.985 224.004, 1084.777 225.500 C 1084.453 227.842, 1080.195 228.710, 1077.117 227.062 C 1075.471 226.182, 1075.020 226.363, 1074.460 228.126 C 1073.590 230.866, 1075.343 231.965, 1080.615 231.985 C 1087.826 232.012, 1092.010 226.625, 1089.061 221.114 C 1088.544 220.148, 1086.273 218.525, 1084.014 217.506 C 1080.871 216.089, 1079.976 215.166, 1080.203 213.577 C 1080.446 211.879, 1081.214 211.500, 1084.409 211.500 C 1086.820 211.500, 1088.496 210.977, 1088.781 210.134 C 1089.977 206.604, 1080.695 205.772, 1077.134 209.090 M 334.400 211.765 C 333.795 212.169, 332.766 213.512, 332.115 214.750 C 330.953 216.955, 331.040 217, 336.465 217 C 340.595 217, 342 216.637, 342 215.571 C 342 212.303, 337.197 209.898, 334.400 211.765 M 396.789 212.058 C 395.849 212.607, 394.630 214.679, 394.083 216.663 C 391.824 224.845, 398.760 231.306, 403.671 225.596 C 406.839 221.913, 406.785 216.694, 403.545 213.455 C 400.894 210.803, 399.453 210.505, 396.789 212.058 M 425 213 C 421.850 216.150, 422.593 217, 428.500 217 C 434.377 217, 435.543 215.686, 432.429 212.571 C 430.288 210.431, 427.402 210.598, 425 213 M 539.861 212.912 C 534.928 216.906, 537.717 228, 543.655 228 C 547.486 228, 550 224.632, 550 219.500 C 550 212.061, 544.957 208.785, 539.861 212.912 M 847 213 C 843.850 216.150, 844.593 217, 850.500 217 C 856.377 217, 857.543 215.686, 854.429 212.571 C 852.288 210.431, 849.402 210.598, 847 213 M 1006.557 213.223 C 1004.175 216.622, 1004.570 217, 1010.500 217 C 1013.525 217, 1016 216.650, 1016 216.223 C 1016 214.189, 1012.642 211, 1010.500 211 C 1009.167 211, 1007.426 211.982, 1006.557 213.223 M 679.618 218.134 C 678.728 219.405, 678 221.400, 678 222.568 C 678 227.005, 684.477 229.651, 688.239 226.750 C 689.684 225.636, 689.391 224.973, 685.549 220.662 L 681.237 215.824 679.618 218.134 M 605.984 221.812 C 604.344 223.140, 603.931 224.209, 604.440 225.812 C 605.857 230.277, 613 227.239, 613 222.171 C 613 219.405, 609.197 219.210, 605.984 221.812 M 912.861 221.937 C 910.942 223.512, 910.706 224.214, 911.602 225.687 C 914.073 229.751, 920 227.451, 920 222.429 C 920 220.535, 919.474 220, 917.611 220 C 916.297 220, 914.159 220.872, 912.861 221.937" stroke="none" fill="#044454" fill-rule="evenodd"/><path d="M 1074 35.037 L 1074 64.075 1069.745 58.855 C 1064.557 52.492, 1055.350 46.045, 1048.135 43.725 C 1040.809 41.369, 1027.954 41.447, 1020.091 43.895 C 1004 48.903, 990.640 63.850, 987.105 80.799 C 985.540 88.303, 985.736 100.551, 987.532 107.540 C 992.273 125.989, 1006.918 140.347, 1024.781 144.060 C 1031.835 145.526, 1043.004 144.773, 1049 142.428 C 1056.329 139.562, 1063.871 134.067, 1069.099 127.785 L 1074 121.896 1074 132.448 L 1074 143 1079 143 L 1084 143 1084 74.500 L 1084 6 1079 6 L 1074 6 1074 35.037 M 26.918 41.322 C -3.624 78.904, -8.074 133.672, 16.049 175.069 C 21.007 183.577, 27.674 192.358, 33.443 197.978 L 38.041 202.456 77.266 163.231 L 116.492 124.005 88.515 96.015 L 60.538 68.024 40.463 88.012 C 29.422 99.006, 19.658 108, 18.766 108 C 16.905 108, 14 105.399, 14 103.734 C 14 103.117, 23.102 93.470, 34.226 82.297 L 54.452 61.983 42.492 49.992 C 35.913 43.396, 30.299 38.032, 30.016 38.072 C 29.732 38.112, 28.338 39.574, 26.918 41.322 M 664.423 44.363 C 656.035 47.482, 652.262 49.996, 645.798 56.773 C 636.209 66.826, 631.991 78.108, 632.012 93.644 C 632.033 109.122, 636.543 120.666, 646.459 130.621 C 667.472 151.715, 698.789 149.230, 717.303 125 L 719.978 121.500 719.989 147.250 L 720 173 725 173 L 730 173 730 108.500 L 730 44 725 44 L 720 44 720 54.090 L 720 64.180 716.105 59.252 C 710.954 52.735, 703.267 47.212, 695.350 44.338 C 686.475 41.116, 673.127 41.128, 664.423 44.363 M 910.500 42.599 C 903.750 43.547, 893.176 46.393, 888.140 48.619 C 883.818 50.528, 882.919 51.327, 883.493 52.743 C 883.884 53.710, 884.662 55.765, 885.221 57.311 C 885.976 59.397, 886.659 59.934, 887.869 59.391 C 895.129 56.133, 907.200 52.845, 913.744 52.344 C 934.257 50.771, 947.523 60.601, 948.790 78.313 C 949.260 84.873, 949.170 85.279, 947.407 84.603 C 943.760 83.203, 926.416 81.012, 919 81.013 C 892.165 81.019, 876.004 91.839, 874.270 110.958 C 873.135 123.471, 879.450 134.142, 891.499 140.074 C 908.620 148.503, 930.679 145.422, 944.348 132.692 L 949 128.360 949 135.680 L 949 143 954 143 L 959 143 959 107.682 C 959 68.795, 958.713 66.439, 952.907 57.674 C 949.060 51.865, 942.596 47.287, 934.830 44.870 C 928.903 43.025, 916.025 41.823, 910.500 42.599 M 763 78.395 C 763 110.035, 763.161 113.298, 765.005 119.145 C 770.367 136.146, 785.878 146.065, 805 144.720 C 816.333 143.924, 823.309 140.865, 830.750 133.430 L 837 127.185 837 135.093 L 837 143 842 143 L 847 143 847 93.500 L 847 44 842.061 44 L 837.122 44 836.811 77.250 C 836.458 114.974, 836.403 115.268, 827.879 124.515 C 821.745 131.170, 815.230 134.224, 806 134.774 C 791.769 135.621, 782.757 130.905, 777.008 119.604 L 773.500 112.708 773.190 78.354 L 772.880 44 767.940 44 L 763 44 763 78.395 M 668.844 53.347 C 651.111 59.907, 641.911 75.428, 643.266 96.500 C 644.449 114.900, 654.235 128.127, 670.369 133.135 C 686.180 138.043, 703.634 131.370, 713.037 116.821 C 726.992 95.231, 718.978 65.813, 696.253 55.207 C 691.580 53.026, 688.810 52.473, 681.500 52.259 C 675.779 52.091, 671.168 52.488, 668.844 53.347 M 1020.730 54.373 C 1010.158 58.807, 1004.122 65.011, 999.831 75.855 C 996.652 83.890, 996.613 100.882, 999.755 109.360 C 1005.893 125.928, 1021.350 136.190, 1037.843 134.650 C 1051.480 133.377, 1064.148 124.242, 1070.307 111.241 C 1073.302 104.918, 1073.499 103.818, 1073.479 93.500 C 1073.453 79.375, 1071.333 73.568, 1062.926 64.580 C 1054.740 55.830, 1047.655 52.643, 1035.500 52.246 C 1027.819 51.996, 1025.655 52.307, 1020.730 54.373 M 909.403 91.090 C 893.154 93.104, 884.011 102.132, 885.326 114.866 C 886.108 122.449, 889.877 127.606, 897.471 131.487 C 902.911 134.268, 904.142 134.495, 913.433 134.435 C 925.555 134.356, 932.327 132.105, 939.541 125.755 C 946.379 119.736, 948.978 113.562, 948.990 103.309 C 948.996 98.804, 948.610 94.877, 948.132 94.582 C 946.686 93.688, 929.959 91.185, 922.500 90.746 C 918.650 90.519, 912.756 90.674, 909.403 91.090 M 51.922 107.274 C 43.867 112.702, 41.878 120.986, 46.447 130.082 C 48.757 134.680, 54.683 143.696, 58.757 148.808 L 60.596 151.115 66.183 143.308 C 73.859 132.580, 77 126.011, 77 120.681 C 77 108.615, 61.906 100.546, 51.922 107.274 M 56.110 113.396 C 53.452 114.869, 51.090 118.548, 51.035 121.300 C 50.977 124.292, 53.690 128.538, 56.472 129.805 C 60.492 131.637, 62.678 131.259, 66.184 128.127 C 70.708 124.084, 70.708 118.916, 66.184 114.873 C 62.691 111.752, 59.832 111.333, 56.110 113.396 M 102.746 149.754 L 83.005 169.513 130.753 217.237 L 178.500 264.961 186.572 262.157 C 200.493 257.321, 212.581 250.214, 226.276 238.811 L 229.052 236.500 175.770 183.247 L 122.487 129.994 102.746 149.754 M 61.241 191.259 C 52.308 200.204, 45 207.865, 45 208.283 C 45 209.762, 62.362 220.338, 70.252 223.665 C 86.495 230.516, 104.626 233.679, 121.469 232.600 C 126.953 232.249, 131.780 231.620, 132.198 231.202 C 132.615 230.785, 120.475 217.967, 105.219 202.719 L 77.482 174.995 61.241 191.259" stroke="none" fill="#048c94" fill-rule="evenodd"/></svg>
