<?xml version="1.0" standalone="no"?>
<!DOCTYPE svg PUBLIC "-//W3C//DTD SVG 20010904//EN"
 "http://www.w3.org/TR/2001/REC-SVG-20010904/DTD/svg10.dtd">
<svg version="1.0" xmlns="http://www.w3.org/2000/svg"
 width="200" height="60" viewBox="0 0 1090.000000 265.000000"
 preserveAspectRatio="xMidYMid meet">

<g transform="translate(0.000000,265.000000) scale(0.100000,-0.100000)"
fill="#000000" stroke="none">
<path d="M967 2635 c-204 -34 -414 -133 -555 -261 l-43 -39 118 -117 118 -118
275 275 275 275 -55 -1 c-30 -1 -90 -7 -133 -14z"/>
<path d="M972 2338 l-302 -303 150 -150 150 -150 375 375 c206 206 375 378
375 381 0 3 -40 25 -88 47 -96 44 -233 88 -309 97 l-48 6 -303 -303z"/>
<path d="M10740 2294 l0 -296 -40 51 c-176 222 -503 236 -694 30 -97 -105
-136 -209 -136 -364 0 -158 41 -266 140 -366 197 -200 522 -180 687 41 l38 51
3 -105 3 -106 44 0 45 0 0 680 0 680 -45 0 -45 0 0 -296z m-229 -191 c184 -91
276 -296 224 -498 -31 -118 -116 -223 -221 -271 -246 -114 -503 35 -547 316
-27 174 49 360 179 436 73 43 121 54 215 51 73 -3 96 -8 150 -34z"/>
<path d="M1632 2267 l-162 -162 399 -399 c366 -366 399 -397 406 -375 5 13 8
85 8 159 -1 279 -87 523 -261 741 -62 77 -194 199 -216 199 -6 0 -84 -73 -174
-163z"/>
<path d="M247 2196 c-58 -77 -147 -248 -176 -336 -90 -280 -76 -572 39 -842
46 -106 150 -265 219 -333 l51 -50 388 388 387 387 -275 275 -275 275 -200
-200 c-111 -110 -207 -200 -214 -200 -28 0 -51 22 -51 48 0 22 38 65 197 224
l198 198 -115 115 c-63 63 -117 115 -120 115 -3 0 -26 -29 -53 -64z m420 -597
c64 -24 113 -95 113 -163 0 -53 -54 -150 -166 -295 -9 -11 -22 2 -68 65 -134
183 -149 271 -59 356 48 46 118 61 180 37z"/>
<path d="M565 1508 c-78 -45 -45 -158 46 -158 26 0 79 53 79 79 0 68 -69 111
-125 79z"/>
<path d="M3361 2214 c-86 -23 -149 -63 -222 -143 l-69 -75 0 107 0 107 -45 0
-45 0 0 -645 0 -645 45 0 45 0 0 256 0 256 66 -71 c94 -102 181 -144 309 -149
98 -5 171 10 249 50 56 29 151 122 185 182 53 95 66 150 65 281 0 105 -4 128
-27 188 -33 84 -73 143 -134 197 -117 103 -278 143 -422 104z m264 -113 c159
-78 246 -261 218 -456 -21 -144 -97 -256 -211 -312 -51 -25 -67 -28 -162 -28
-93 0 -112 3 -162 27 -106 49 -191 149 -223 262 -13 43 -16 84 -13 151 3 78 9
102 35 156 42 84 88 136 158 178 78 47 135 62 224 57 56 -4 89 -12 136 -35z"/>
<path d="M6703 2215 c-173 -39 -306 -169 -359 -350 -24 -85 -22 -230 5 -316
106 -338 512 -451 758 -212 22 21 51 54 66 73 l27 35 0 -262 0 -263 45 0 45 0
0 640 0 640 -45 0 -44 0 -3 -100 -3 -100 -41 53 c-103 133 -288 199 -451 162z
m269 -113 c79 -39 159 -120 195 -198 118 -258 -29 -555 -301 -605 -158 -29
-329 63 -400 215 -78 168 -53 381 61 507 76 84 168 120 294 116 74 -3 96 -8
151 -35z"/>
<path d="M4480 2214 c-49 -10 -136 -36 -181 -56 l-47 -20 16 -39 c11 -29 20
-39 31 -35 9 2 48 17 86 32 94 36 255 45 339 19 115 -36 176 -119 184 -247 l5
-77 -54 15 c-72 21 -336 30 -409 15 -178 -37 -282 -147 -284 -301 -1 -90 23
-146 87 -207 72 -68 144 -95 269 -101 79 -3 110 0 166 17 72 22 173 87 204
132 17 23 17 22 17 -53 l1 -78 50 0 50 0 0 313 c0 171 -5 341 -11 377 -14 85
-61 173 -117 216 -74 56 -142 76 -267 80 -60 1 -121 0 -135 -2z m349 -488 c40
-9 77 -19 82 -22 14 -8 11 -126 -5 -178 -43 -142 -178 -228 -358 -229 -78 0
-93 3 -153 32 -52 26 -73 43 -95 78 -86 135 -18 280 153 328 66 19 269 14 376
-9z"/>
<path d="M9040 2205 c-62 -13 -160 -46 -188 -64 -11 -7 -11 -14 1 -44 l15 -36
74 29 c201 78 417 51 500 -64 35 -48 58 -124 58 -188 0 -42 -2 -49 -17 -44
-58 18 -210 36 -297 36 -208 0 -344 -62 -409 -184 -18 -33 -22 -57 -22 -131 0
-80 3 -95 27 -136 122 -208 477 -229 667 -39 l51 51 0 -81 0 -80 45 0 45 0 0
313 c0 171 -5 341 -10 376 -19 112 -82 206 -170 251 -93 47 -240 61 -370 35z
m389 -480 l73 -17 -4 -97 c-5 -110 -22 -153 -85 -212 -67 -64 -183 -109 -281
-109 -56 0 -152 28 -195 56 -71 47 -107 135 -88 218 20 86 80 143 179 172 65
19 303 12 401 -11z"/>
<path d="M5210 2201 c0 -5 104 -225 231 -488 l231 -478 -31 -61 c-35 -72 -81
-128 -125 -151 -41 -22 -157 -21 -210 1 -22 9 -40 15 -41 14 -2 -2 -10 -20
-19 -41 l-15 -38 37 -16 c57 -25 198 -29 261 -8 65 21 134 88 178 171 29 54
448 1043 460 1087 5 15 -2 17 -45 17 l-50 0 -172 -427 c-94 -236 -175 -431
-179 -435 -4 -4 -97 187 -208 425 l-200 432 -52 3 c-29 2 -51 -1 -51 -7z"/>
<path d="M7630 1903 c0 -325 8 -410 45 -490 33 -73 107 -145 181 -174 49 -20
77 -24 169 -24 105 0 114 2 176 32 62 31 120 82 161 143 17 24 17 23 17 -67
l1 -93 45 0 45 0 0 485 0 485 -45 0 -45 0 0 -298 c0 -236 -3 -310 -15 -357
-26 -101 -91 -179 -185 -224 -47 -22 -69 -26 -145 -26 -78 0 -97 4 -147 28
-67 33 -110 81 -140 157 -21 52 -23 73 -26 388 l-3 332 -45 0 -44 0 0 -297z"/>
<path d="M1220 1855 l-185 -185 480 -480 481 -481 51 69 c66 85 144 233 178
336 l27 79 -424 424 -423 423 -185 -185z"/>
<path d="M1032 1147 l-192 -192 473 -473 473 -473 89 31 c132 47 265 124 372
218 l32 28 -527 527 -527 527 -193 -193z"/>
<path d="M615 730 l-160 -161 25 -20 c93 -75 263 -153 413 -190 91 -23 315
-35 385 -22 l42 8 -272 273 -273 272 -160 -160z"/>
<path d="M4060 616 l0 -65 -36 15 c-32 14 -39 13 -72 -3 -45 -22 -62 -53 -62
-115 0 -89 75 -140 145 -99 28 16 35 17 35 6 0 -8 8 -15 18 -15 16 0 17 14 14
170 -3 161 -4 170 -22 170 -18 0 -20 -7 -20 -64z m-18 -93 c13 -11 18 -30 18
-66 0 -58 -20 -87 -59 -87 -32 0 -44 8 -60 37 -41 78 39 172 101 116z"/>
<path d="M6270 510 c0 -163 1 -170 20 -170 19 0 20 7 20 170 0 163 -1 170 -20
170 -19 0 -20 -7 -20 -170z"/>
<path d="M7850 510 c0 -163 1 -170 20 -170 19 0 20 7 20 170 0 163 -1 170 -20
170 -19 0 -20 -7 -20 -170z"/>
<path d="M6808 654 c-34 -18 -45 -56 -29 -101 12 -31 11 -37 -9 -55 -53 -49
-45 -129 16 -154 44 -19 63 -18 107 5 31 16 38 16 48 5 6 -8 23 -14 37 -14
l25 0 -23 25 c-22 24 -23 26 -7 62 29 68 30 83 9 83 -13 0 -22 -11 -31 -40 -6
-22 -16 -40 -20 -40 -9 0 -71 67 -71 76 0 3 14 17 30 31 22 18 30 33 30 56 0
38 -7 50 -37 66 -28 14 -42 14 -75 -5z m66 -30 c21 -21 20 -36 -4 -62 -24 -26
-45 -28 -54 -6 -23 59 19 108 58 68z m-16 -177 c23 -23 42 -48 42 -54 0 -6
-14 -16 -30 -22 -65 -22 -115 31 -85 90 9 16 19 29 23 29 4 0 27 -19 50 -43z"/>
<path d="M7286 660 c-39 -12 -66 -38 -87 -85 -41 -88 -9 -193 68 -227 87 -38
177 7 203 101 35 130 -67 247 -184 211z m103 -51 c79 -74 41 -239 -57 -239
-18 0 -42 5 -53 10 -64 35 -66 202 -2 239 31 18 87 13 112 -10z"/>
<path d="M3000 500 c0 -153 1 -160 20 -160 18 0 20 7 20 70 l0 70 30 0 c30 0
70 -30 70 -52 0 -7 5 -30 11 -50 7 -28 15 -38 31 -38 22 0 22 -1 -3 91 -5 20
-16 42 -24 49 -12 10 -10 15 11 34 38 32 38 90 0 122 -23 20 -38 24 -97 24
l-69 0 0 -160z m132 113 c44 -40 8 -103 -59 -103 l-33 0 0 60 0 60 37 0 c20 0
45 -7 55 -17z"/>
<path d="M3764 645 c-4 -9 -2 -21 4 -27 15 -15 44 -1 40 19 -4 23 -36 29 -44
8z"/>
<path d="M5070 500 l0 -160 25 0 c24 0 25 2 25 66 0 38 4 63 9 59 20 -11 96
14 119 40 22 26 29 75 16 110 -11 28 -60 45 -129 45 l-65 0 0 -160z m138 114
c50 -35 14 -114 -53 -114 l-35 0 0 65 0 65 33 0 c18 0 43 -7 55 -16z"/>
<path d="M7986 651 c-10 -16 5 -41 24 -41 19 0 30 17 23 38 -5 14 -39 16 -47
3z"/>
<path d="M8820 500 c0 -153 1 -160 20 -160 18 0 20 7 20 63 l0 63 39 1 c89 4
137 66 106 139 -18 43 -41 54 -119 54 l-66 0 0 -160z m128 114 c15 -10 22 -25
22 -49 0 -41 -29 -65 -77 -65 l-33 0 0 65 0 65 33 0 c18 0 43 -7 55 -16z"/>
<path d="M4788 632 c-12 -2 -18 -13 -18 -33 0 -22 -5 -29 -20 -29 -11 0 -20
-7 -20 -15 0 -8 9 -15 20 -15 18 0 20 -7 20 -85 0 -72 3 -88 20 -105 21 -21
37 -24 64 -14 26 10 18 32 -11 36 -28 3 -28 4 -31 86 l-3 82 31 0 c20 0 30 5
30 15 0 10 -10 15 -29 15 -26 0 -30 4 -33 33 -2 25 -7 32 -20 29z"/>
<path d="M5840 600 c0 -23 -4 -30 -20 -30 -11 0 -20 -7 -20 -15 0 -8 9 -15 20
-15 19 0 20 -7 20 -90 0 -84 2 -91 25 -106 29 -19 59 -15 63 8 2 11 -5 18 -20
20 -22 3 -23 8 -26 86 l-3 82 31 0 c20 0 30 5 30 15 0 10 -10 15 -30 15 -27 0
-30 3 -30 30 0 23 -4 30 -20 30 -16 0 -20 -7 -20 -30z"/>
<path d="M10587 623 c-4 -3 -7 -17 -7 -30 0 -14 -6 -23 -15 -23 -8 0 -15 -7
-15 -15 0 -8 6 -15 14 -15 10 0 15 -22 18 -87 4 -75 8 -88 28 -105 27 -22 63
-20 68 4 2 11 -5 18 -20 20 -22 3 -23 8 -26 86 l-3 82 31 0 c20 0 30 5 30 15
0 10 -10 15 -30 15 -27 0 -30 3 -30 30 0 22 -5 30 -18 30 -10 0 -22 -3 -25 -7z"/>
<path d="M3335 566 c-39 -17 -55 -37 -65 -81 -16 -69 21 -134 83 -149 42 -10
97 3 97 23 0 13 -9 15 -51 12 -57 -3 -89 16 -89 56 0 22 3 23 81 23 l82 0 -6
37 c-11 67 -74 104 -132 79z m85 -56 c16 -29 14 -30 -50 -30 -64 0 -77 12 -42
42 36 32 71 27 92 -12z"/>
<path d="M3595 573 c-32 -8 -55 -34 -55 -63 0 -29 19 -50 65 -71 61 -29 33
-88 -33 -70 -41 12 -54 -15 -14 -30 63 -24 126 14 120 72 -2 27 -11 38 -48 59
-61 36 -62 65 -2 65 33 0 42 4 42 18 0 9 -6 17 -14 17 -8 0 -20 2 -28 4 -7 2
-22 1 -33 -1z"/>
<path d="M4253 565 c-42 -18 -66 -57 -67 -109 -1 -56 18 -91 62 -112 44 -21
122 -12 122 14 0 14 -9 16 -53 14 -56 -4 -82 11 -89 53 -3 18 3 20 81 23 l83
3 -5 36 c-11 67 -74 104 -134 78z m72 -40 c38 -37 31 -45 -35 -45 -68 0 -78
14 -34 49 34 27 40 26 69 -4z"/>
<path d="M4548 568 c-16 -5 -28 -14 -28 -19 0 -5 -4 -9 -10 -9 -5 0 -10 7 -10
15 0 8 -7 15 -15 15 -12 0 -15 -19 -15 -115 0 -108 1 -115 20 -115 18 0 20 7
20 80 0 67 3 83 20 100 24 24 53 26 74 4 12 -12 16 -36 16 -100 0 -83 0 -84
25 -84 24 0 25 2 25 68 0 100 -14 141 -55 158 -19 8 -36 14 -37 13 -2 0 -15
-5 -30 -11z"/>
<path d="M5404 569 c-109 -31 -100 -214 11 -235 72 -13 135 43 135 121 0 86
-65 137 -146 114z m80 -48 c10 -11 20 -38 23 -60 5 -35 2 -44 -26 -71 -34 -35
-62 -34 -93 2 -25 29 -24 98 2 126 26 27 71 29 94 3z"/>
<path d="M5720 572 c-8 -2 -23 -11 -32 -20 -16 -14 -18 -13 -18 1 0 10 -8 17
-20 17 -19 0 -20 -7 -20 -115 0 -108 1 -115 20 -115 18 0 20 7 20 64 0 83 13
115 50 129 40 15 40 53 0 39z"/>
<path d="M6075 575 c-5 -2 -23 -6 -38 -9 -45 -10 -26 -31 28 -31 35 0 51 -5
59 -18 14 -22 -5 -37 -47 -37 -34 0 -87 -49 -87 -80 0 -28 43 -70 72 -70 13 0
34 8 48 17 17 12 25 13 28 5 2 -7 12 -12 22 -12 16 0 18 8 13 83 -6 118 -9
126 -48 143 -19 8 -36 14 -37 13 -2 0 -7 -2 -13 -4z m55 -150 c0 -64 -79 -88
-88 -26 -6 36 17 53 76 60 7 0 12 -12 12 -34z"/>
<path d="M6453 573 c-27 -5 -53 -39 -53 -69 0 -24 21 -45 65 -65 61 -29 33
-88 -33 -70 -41 12 -54 -15 -14 -30 63 -24 126 14 120 72 -2 27 -11 38 -48 59
-61 36 -62 65 -2 65 33 0 42 4 42 18 0 9 -6 17 -14 17 -8 0 -20 2 -28 4 -7 2
-23 1 -35 -1z"/>
<path d="M7627 561 c-29 -15 -37 -16 -37 -5 0 8 -9 14 -21 14 -15 0 -19 -4
-15 -16 3 -9 6 -60 6 -115 0 -92 1 -99 20 -99 18 0 20 7 20 83 0 90 13 117 58
117 41 0 52 -25 52 -116 0 -77 2 -84 20 -84 19 0 20 7 20 95 0 82 -3 98 -20
115 -11 11 -24 20 -29 20 -5 0 -15 2 -23 5 -7 3 -30 -3 -51 -14z"/>
<path d="M8197 561 c-29 -15 -37 -16 -37 -5 0 8 -7 14 -15 14 -12 0 -15 -19
-15 -115 0 -108 1 -115 20 -115 18 0 20 7 20 78 0 87 16 122 55 122 44 0 55
-24 55 -116 0 -77 2 -84 20 -84 19 0 20 7 20 95 0 82 -3 98 -20 115 -11 11
-24 20 -29 20 -5 0 -15 2 -23 5 -7 3 -30 -3 -51 -14z"/>
<path d="M8483 573 c-30 -6 -71 -56 -78 -96 -17 -89 50 -156 140 -142 33 4 45
11 45 23 0 14 -9 16 -53 14 -56 -4 -82 11 -89 53 -3 18 3 20 80 23 90 3 93 6
69 65 -21 49 -60 70 -114 60z m72 -56 c23 -33 19 -37 -45 -37 -59 0 -71 8 -52
36 24 35 73 36 97 1z"/>
<path d="M9145 575 c-5 -2 -22 -6 -37 -9 -47 -10 -23 -32 33 -31 44 0 53 -3
60 -22 7 -20 3 -23 -44 -33 -66 -14 -87 -33 -87 -80 0 -59 52 -85 109 -56 17
9 31 12 31 6 0 -5 9 -10 21 -10 20 0 21 4 17 95 -2 79 -6 98 -23 114 -20 18
-61 32 -80 26z m60 -126 c23 -36 -37 -100 -74 -79 -39 20 -24 71 24 83 34 8
44 7 50 -4z"/>
<path d="M9680 573 c-8 -3 -23 -12 -32 -21 -16 -14 -18 -13 -18 1 0 10 -8 17
-20 17 -19 0 -20 -7 -20 -115 0 -108 1 -115 20 -115 18 0 20 7 20 80 0 67 3
83 21 101 26 26 60 21 76 -11 7 -14 13 -58 13 -97 0 -66 2 -73 20 -73 18 0 20
7 20 84 0 89 11 116 50 116 39 0 50 -27 50 -116 0 -77 2 -84 20 -84 18 0 20 7
20 85 0 46 -5 96 -12 110 -18 40 -84 50 -120 18 -16 -15 -20 -15 -35 -1 -22
19 -53 28 -73 21z"/>
<path d="M10090 573 c-39 -12 -60 -29 -75 -58 -48 -102 21 -196 131 -179 66
10 59 34 -10 34 -47 0 -57 4 -75 26 -37 47 -29 54 58 54 44 0 82 4 85 8 9 14
-13 78 -32 94 -20 18 -60 28 -82 21z m58 -46 c6 -5 12 -18 12 -28 0 -16 -8
-19 -60 -19 -57 0 -59 1 -51 23 15 40 62 52 99 24z"/>
<path d="M10357 561 c-29 -15 -37 -16 -37 -5 0 8 -9 14 -20 14 -19 0 -20 -7
-20 -115 l0 -115 25 0 c25 0 25 1 25 83 0 90 13 117 58 117 36 0 52 -37 52
-122 0 -71 2 -78 20 -78 19 0 20 7 20 89 0 79 -3 93 -22 115 -32 34 -58 39
-101 17z"/>
<path d="M10793 565 c-60 -25 -53 -94 12 -121 19 -8 39 -23 45 -34 15 -29 -26
-55 -64 -40 -36 13 -36 13 -36 -9 0 -14 10 -21 34 -25 48 -9 101 14 110 48 9
36 -6 60 -56 88 -60 33 -60 63 -1 63 25 0 45 5 47 12 10 25 -49 36 -91 18z"/>
<path d="M3760 455 l0 -115 25 0 25 0 0 115 0 115 -25 0 -25 0 0 -115z"/>
<path d="M7990 455 c0 -108 1 -115 20 -115 19 0 20 7 20 115 0 108 -1 115 -20
115 -19 0 -20 -7 -20 -115z"/>
<path d="M9310 567 c0 -2 12 -32 26 -68 14 -35 35 -86 45 -112 l19 -49 -40
-40 c-26 -27 -37 -45 -32 -54 12 -22 67 18 92 66 23 45 100 239 100 252 0 4
-9 8 -19 8 -16 0 -25 -17 -47 -85 -16 -47 -31 -85 -34 -85 -3 0 -19 38 -35 85
-26 73 -33 85 -52 85 -13 0 -23 -1 -23 -3z"/>
</g>
</svg>
